<svg xmlns="http://www.w3.org/2000/svg" viewBox="0 0 512 512" width="512" height="512" role="img" aria-label="Tabora">
  <defs>
    <linearGradient id="tg" x1="0" y1="0" x2="1" y2="1">
      <stop offset="0%" stop-color="#38bdf8"/><stop offset="100%" stop-color="#6366f1"/>
    </linearGradient>
  </defs>
  <g fill="none" stroke="url(#tg)" stroke-linejoin="round" stroke-linecap="round">
    <polygon points="256.00,66.00 420.54,161.00 420.54,351.00 256.00,446.00 91.46,351.00 91.46,161.00" stroke-width="18"/>
    <polygon points="256.00,142.00 354.73,199.00 354.73,313.00 256.00,370.00 157.27,313.00 157.27,199.00" stroke-width="12" opacity=".55"/>
    <g stroke-width="12" opacity=".55"><line x1="256.00" y1="66.00" x2="256.00" y2="142.00"/><line x1="420.54" y1="351.00" x2="354.73" y2="313.00"/><line x1="91.46" y1="351.00" x2="157.27" y2="313.00"/></g>
  </g>
  <g fill="url(#tg)"><circle cx="256.00" cy="66.00" r="27"/><circle cx="420.54" cy="351.00" r="27"/><circle cx="91.46" cy="351.00" r="27"/></g>
  <path fill="url(#tg)" d="M199 216h114v33h-40v96h-34v-96h-40z"/>
</svg>